<svg width="305" height="390" viewBox="0 0 305 390" fill="none" xmlns="http://www.w3.org/2000/svg">
<g opacity="0.5">
<rect width="5.7377" height="5.75863" fill="#404852"/>
<rect x="38.2515" width="5.7377" height="5.75863" fill="#404852"/>
<rect x="76.502" width="5.7377" height="5.75863" fill="#404852"/>
<rect x="114.754" width="5.7377" height="5.75863" fill="#404852"/>
<rect x="153.005" width="5.7377" height="5.75863" fill="#404852"/>
<rect x="191.257" width="5.7377" height="5.75863" fill="#404852"/>
<rect x="229.508" width="5.7377" height="5.75863" fill="#404852"/>
<rect x="267.76" width="5.7377" height="5.75863" fill="#404852"/>
<rect y="38.3906" width="5.7377" height="5.75863" fill="#404852"/>
<rect x="38.2515" y="38.3906" width="5.7377" height="5.75863" fill="#404852"/>
<rect x="76.502" y="38.3906" width="5.7377" height="5.75863" fill="#404852"/>
<rect x="114.754" y="38.3906" width="5.7377" height="5.75863" fill="#404852"/>
<rect x="153.005" y="38.3906" width="5.7377" height="5.75863" fill="#404852"/>
<rect x="191.257" y="38.3906" width="5.7377" height="5.75863" fill="#404852"/>
<rect x="229.508" y="38.3906" width="5.7377" height="5.75863" fill="#404852"/>
<rect x="267.759" y="38.3906" width="5.7377" height="5.75863" fill="#404852"/>
<rect y="76.7812" width="5.7377" height="5.75863" fill="#404852"/>
<rect x="38.2515" y="76.7812" width="5.7377" height="5.75863" fill="#404852"/>
<rect x="76.502" y="76.7812" width="5.7377" height="5.75863" fill="#404852"/>
<rect x="114.754" y="76.7812" width="5.7377" height="5.75863" fill="#404852"/>
<rect x="153.005" y="76.7812" width="5.7377" height="5.75863" fill="#404852"/>
<rect x="191.257" y="76.7812" width="5.7377" height="5.75863" fill="#404852"/>
<rect x="229.508" y="76.7812" width="5.7377" height="5.75863" fill="#404852"/>
<rect x="267.759" y="76.7812" width="5.7377" height="5.75863" fill="#404852"/>
<rect y="115.172" width="5.7377" height="5.75863" fill="#404852"/>
<rect x="38.2515" y="115.172" width="5.7377" height="5.75863" fill="#404852"/>
<rect x="76.502" y="115.172" width="5.7377" height="5.75863" fill="#404852"/>
<rect x="114.754" y="115.172" width="5.7377" height="5.75863" fill="#404852"/>
<rect x="153.005" y="115.172" width="5.7377" height="5.75863" fill="#404852"/>
<rect x="191.257" y="115.172" width="5.7377" height="5.75863" fill="#404852"/>
<rect x="229.508" y="115.172" width="5.7377" height="5.75863" fill="#404852"/>
<rect x="267.759" y="115.172" width="5.7377" height="5.75863" fill="#404852"/>
<rect y="153.562" width="5.7377" height="5.75863" fill="#404852"/>
<rect x="38.2515" y="153.562" width="5.7377" height="5.75863" fill="#404852"/>
<rect x="76.502" y="153.562" width="5.7377" height="5.75863" fill="#404852"/>
<rect x="114.754" y="153.562" width="5.7377" height="5.75863" fill="#404852"/>
<rect x="153.005" y="153.562" width="5.7377" height="5.75863" fill="#404852"/>
<rect x="191.257" y="153.562" width="5.7377" height="5.75863" fill="#404852"/>
<rect x="229.508" y="153.562" width="5.7377" height="5.75863" fill="#404852"/>
<rect x="267.759" y="153.562" width="5.7377" height="5.75863" fill="#404852"/>
<rect y="191.953" width="5.7377" height="5.75863" fill="#404852"/>
<rect x="38.2515" y="191.953" width="5.7377" height="5.75863" fill="#404852"/>
<rect x="76.502" y="191.953" width="5.7377" height="5.75863" fill="#404852"/>
<rect x="114.754" y="191.953" width="5.7377" height="5.75863" fill="#404852"/>
<rect x="153.005" y="191.953" width="5.7377" height="5.75863" fill="#404852"/>
<rect x="191.257" y="191.953" width="5.7377" height="5.75863" fill="#404852"/>
<rect x="229.508" y="191.953" width="5.7377" height="5.75863" fill="#404852"/>
<rect x="267.759" y="191.953" width="5.7377" height="5.75863" fill="#404852"/>
<rect y="230.346" width="5.7377" height="5.75863" fill="#404852"/>
<rect x="38.2515" y="230.346" width="5.7377" height="5.75863" fill="#404852"/>
<rect x="76.502" y="230.346" width="5.7377" height="5.75863" fill="#404852"/>
<rect x="114.754" y="230.346" width="5.7377" height="5.75863" fill="#404852"/>
<rect x="153.005" y="230.346" width="5.7377" height="5.75863" fill="#404852"/>
<rect x="191.257" y="230.346" width="5.7377" height="5.75863" fill="#404852"/>
<rect x="229.508" y="230.346" width="5.7377" height="5.75863" fill="#404852"/>
<rect x="267.759" y="230.346" width="5.7377" height="5.75863" fill="#404852"/>
<rect y="268.734" width="5.7377" height="5.75863" fill="#404852"/>
<rect x="38.2515" y="268.734" width="5.7377" height="5.75863" fill="#404852"/>
<rect x="76.502" y="268.734" width="5.7377" height="5.75863" fill="#404852"/>
<rect x="114.754" y="268.734" width="5.7377" height="5.75863" fill="#404852"/>
<rect x="153.005" y="268.734" width="5.7377" height="5.75863" fill="#404852"/>
<rect x="191.257" y="268.734" width="5.7377" height="5.75863" fill="#404852"/>
<rect x="229.508" y="268.734" width="5.7377" height="5.75863" fill="#404852"/>
<rect x="267.759" y="268.734" width="5.7377" height="5.75863" fill="#404852"/>
<rect y="307.127" width="5.7377" height="5.75863" fill="#404852"/>
<rect x="38.2515" y="307.127" width="5.7377" height="5.75863" fill="#404852"/>
<rect x="76.502" y="307.127" width="5.7377" height="5.75863" fill="#404852"/>
<rect x="114.754" y="307.127" width="5.7377" height="5.75863" fill="#404852"/>
<rect x="153.005" y="307.127" width="5.7377" height="5.75863" fill="#404852"/>
<rect x="191.257" y="307.127" width="5.7377" height="5.75863" fill="#404852"/>
<rect x="229.508" y="307.127" width="5.7377" height="5.75863" fill="#404852"/>
<rect x="267.759" y="307.127" width="5.7377" height="5.75863" fill="#404852"/>
<rect y="345.518" width="5.7377" height="5.75863" fill="#404852"/>
<rect x="38.2515" y="345.518" width="5.7377" height="5.75863" fill="#404852"/>
<rect x="76.502" y="345.518" width="5.7377" height="5.75863" fill="#404852"/>
<rect x="114.754" y="345.518" width="5.7377" height="5.75863" fill="#404852"/>
<rect x="153.005" y="345.518" width="5.7377" height="5.75863" fill="#404852"/>
<rect x="191.257" y="345.518" width="5.7377" height="5.75863" fill="#404852"/>
<rect x="229.508" y="345.518" width="5.7377" height="5.75863" fill="#404852"/>
<rect x="267.759" y="345.518" width="5.7377" height="5.75863" fill="#404852"/>
<rect y="383.908" width="5.7377" height="5.75863" fill="#404852"/>
<rect x="38.2515" y="383.908" width="5.7377" height="5.75863" fill="#404852"/>
<rect x="76.502" y="383.908" width="5.7377" height="5.75863" fill="#404852"/>
<rect x="114.754" y="383.908" width="5.7377" height="5.75863" fill="#404852"/>
<rect x="153.005" y="383.908" width="5.7377" height="5.75863" fill="#404852"/>
<rect x="191.257" y="383.908" width="5.7377" height="5.75863" fill="#404852"/>
<rect x="229.508" y="383.908" width="5.7377" height="5.75863" fill="#404852"/>
<rect x="267.759" y="383.908" width="5.7377" height="5.75863" fill="#404852"/>
</g>
</svg>
