<svg width="150" height="167" viewBox="0 0 150 167" fill="none" xmlns="http://www.w3.org/2000/svg">
<g opacity="0.5">
<rect width="2.45902" height="2.46798" fill="#404852"/>
<rect x="16.3936" width="2.45902" height="2.46798" fill="#404852"/>
<rect x="32.7866" width="2.45902" height="2.46798" fill="#404852"/>
<rect x="49.1802" width="2.45902" height="2.46798" fill="#404852"/>
<rect x="65.5737" width="2.45902" height="2.46798" fill="#404852"/>
<rect x="81.9673" width="2.45902" height="2.46798" fill="#404852"/>
<rect x="98.3604" width="2.45902" height="2.46798" fill="#404852"/>
<rect x="114.754" width="2.45902" height="2.46798" fill="#404852"/>
<rect x="131.147" width="2.45902" height="2.46798" fill="#404852"/>
<rect x="147.541" width="2.45902" height="2.46798" fill="#404852"/>
<rect y="16.4531" width="2.45902" height="2.46798" fill="#404852"/>
<rect x="16.3936" y="16.4531" width="2.45902" height="2.46798" fill="#404852"/>
<rect x="32.7866" y="16.4531" width="2.45902" height="2.46798" fill="#404852"/>
<rect x="49.1802" y="16.4531" width="2.45902" height="2.46798" fill="#404852"/>
<rect x="65.5737" y="16.4531" width="2.45902" height="2.46798" fill="#404852"/>
<rect x="81.9673" y="16.4531" width="2.45902" height="2.46798" fill="#404852"/>
<rect x="98.3604" y="16.4531" width="2.45902" height="2.46798" fill="#404852"/>
<rect x="114.754" y="16.4531" width="2.45902" height="2.46798" fill="#404852"/>
<rect x="131.147" y="16.4531" width="2.45902" height="2.46798" fill="#404852"/>
<rect x="147.541" y="16.4531" width="2.45902" height="2.46798" fill="#404852"/>
<rect y="32.9062" width="2.45902" height="2.46798" fill="#404852"/>
<rect x="16.3936" y="32.9062" width="2.45902" height="2.46798" fill="#404852"/>
<rect x="32.7866" y="32.9062" width="2.45902" height="2.46798" fill="#404852"/>
<rect x="49.1802" y="32.9062" width="2.45902" height="2.46798" fill="#404852"/>
<rect x="65.5737" y="32.9062" width="2.45902" height="2.46798" fill="#404852"/>
<rect x="81.9673" y="32.9062" width="2.45902" height="2.46798" fill="#404852"/>
<rect x="98.3604" y="32.9062" width="2.45902" height="2.46798" fill="#404852"/>
<rect x="114.754" y="32.9062" width="2.45902" height="2.46798" fill="#404852"/>
<rect x="131.147" y="32.9062" width="2.45902" height="2.46798" fill="#404852"/>
<rect x="147.541" y="32.9062" width="2.45902" height="2.46798" fill="#404852"/>
<rect y="49.3594" width="2.45902" height="2.46798" fill="#404852"/>
<rect x="16.3936" y="49.3594" width="2.45902" height="2.46798" fill="#404852"/>
<rect x="32.7866" y="49.3594" width="2.45902" height="2.46798" fill="#404852"/>
<rect x="49.1802" y="49.3594" width="2.45902" height="2.46798" fill="#404852"/>
<rect x="65.5737" y="49.3594" width="2.45902" height="2.46798" fill="#404852"/>
<rect x="81.9673" y="49.3594" width="2.45902" height="2.46798" fill="#404852"/>
<rect x="98.3604" y="49.3594" width="2.45902" height="2.46798" fill="#404852"/>
<rect x="114.754" y="49.3594" width="2.45902" height="2.46798" fill="#404852"/>
<rect x="131.147" y="49.3594" width="2.45902" height="2.46798" fill="#404852"/>
<rect x="147.541" y="49.3594" width="2.45902" height="2.46798" fill="#404852"/>
<rect y="65.8125" width="2.45902" height="2.46798" fill="#404852"/>
<rect x="16.3936" y="65.8125" width="2.45902" height="2.46798" fill="#404852"/>
<rect x="32.7866" y="65.8125" width="2.45902" height="2.46798" fill="#404852"/>
<rect x="49.1802" y="65.8125" width="2.45902" height="2.46798" fill="#404852"/>
<rect x="65.5737" y="65.8125" width="2.45902" height="2.46798" fill="#404852"/>
<rect x="81.9673" y="65.8125" width="2.45902" height="2.46798" fill="#404852"/>
<rect x="98.3604" y="65.8125" width="2.45902" height="2.46798" fill="#404852"/>
<rect x="114.754" y="65.8125" width="2.45902" height="2.46798" fill="#404852"/>
<rect x="131.147" y="65.8125" width="2.45902" height="2.46798" fill="#404852"/>
<rect x="147.541" y="65.8125" width="2.45902" height="2.46798" fill="#404852"/>
<rect y="82.2656" width="2.45902" height="2.46798" fill="#404852"/>
<rect x="16.3936" y="82.2656" width="2.45902" height="2.46798" fill="#404852"/>
<rect x="32.7866" y="82.2656" width="2.45902" height="2.46798" fill="#404852"/>
<rect x="49.1802" y="82.2656" width="2.45902" height="2.46798" fill="#404852"/>
<rect x="65.5737" y="82.2656" width="2.45902" height="2.46798" fill="#404852"/>
<rect x="81.9673" y="82.2656" width="2.45902" height="2.46798" fill="#404852"/>
<rect x="98.3604" y="82.2656" width="2.45902" height="2.46798" fill="#404852"/>
<rect x="114.754" y="82.2656" width="2.45902" height="2.46798" fill="#404852"/>
<rect x="131.147" y="82.2656" width="2.45902" height="2.46798" fill="#404852"/>
<rect x="147.541" y="82.2656" width="2.45902" height="2.46798" fill="#404852"/>
<rect y="98.7197" width="2.45902" height="2.46798" fill="#404852"/>
<rect x="16.3936" y="98.7197" width="2.45902" height="2.46798" fill="#404852"/>
<rect x="32.7866" y="98.7197" width="2.45902" height="2.46798" fill="#404852"/>
<rect x="49.1802" y="98.7197" width="2.45902" height="2.46798" fill="#404852"/>
<rect x="65.5737" y="98.7197" width="2.45902" height="2.46798" fill="#404852"/>
<rect x="81.9673" y="98.7197" width="2.45902" height="2.46798" fill="#404852"/>
<rect x="98.3604" y="98.7197" width="2.45902" height="2.46798" fill="#404852"/>
<rect x="114.754" y="98.7197" width="2.45902" height="2.46798" fill="#404852"/>
<rect x="131.147" y="98.7197" width="2.45902" height="2.46798" fill="#404852"/>
<rect x="147.541" y="98.7197" width="2.45902" height="2.46798" fill="#404852"/>
<rect y="115.172" width="2.45902" height="2.46798" fill="#404852"/>
<rect x="16.3936" y="115.172" width="2.45902" height="2.46798" fill="#404852"/>
<rect x="32.7866" y="115.172" width="2.45902" height="2.46798" fill="#404852"/>
<rect x="49.1802" y="115.172" width="2.45902" height="2.46798" fill="#404852"/>
<rect x="65.5737" y="115.172" width="2.45902" height="2.46798" fill="#404852"/>
<rect x="81.9673" y="115.172" width="2.45902" height="2.46798" fill="#404852"/>
<rect x="98.3604" y="115.172" width="2.45902" height="2.46798" fill="#404852"/>
<rect x="114.754" y="115.172" width="2.45902" height="2.46798" fill="#404852"/>
<rect x="131.147" y="115.172" width="2.45902" height="2.46798" fill="#404852"/>
<rect x="147.541" y="115.172" width="2.45902" height="2.46798" fill="#404852"/>
<rect y="131.626" width="2.45902" height="2.46798" fill="#404852"/>
<rect x="16.3936" y="131.626" width="2.45902" height="2.46798" fill="#404852"/>
<rect x="32.7866" y="131.626" width="2.45902" height="2.46798" fill="#404852"/>
<rect x="49.1802" y="131.626" width="2.45902" height="2.46798" fill="#404852"/>
<rect x="65.5737" y="131.626" width="2.45902" height="2.46798" fill="#404852"/>
<rect x="81.9673" y="131.626" width="2.45902" height="2.46798" fill="#404852"/>
<rect x="98.3604" y="131.626" width="2.45902" height="2.46798" fill="#404852"/>
<rect x="114.754" y="131.626" width="2.45902" height="2.46798" fill="#404852"/>
<rect x="131.147" y="131.626" width="2.45902" height="2.46798" fill="#404852"/>
<rect x="147.541" y="131.626" width="2.45902" height="2.46798" fill="#404852"/>
<rect y="148.079" width="2.45902" height="2.46798" fill="#404852"/>
<rect x="16.3936" y="148.079" width="2.45902" height="2.46798" fill="#404852"/>
<rect x="32.7866" y="148.079" width="2.45902" height="2.46798" fill="#404852"/>
<rect x="49.1802" y="148.079" width="2.45902" height="2.46798" fill="#404852"/>
<rect x="65.5737" y="148.079" width="2.45902" height="2.46798" fill="#404852"/>
<rect x="81.9673" y="148.079" width="2.45902" height="2.46798" fill="#404852"/>
<rect x="98.3604" y="148.079" width="2.45902" height="2.46798" fill="#404852"/>
<rect x="114.754" y="148.079" width="2.45902" height="2.46798" fill="#404852"/>
<rect x="131.147" y="148.079" width="2.45902" height="2.46798" fill="#404852"/>
<rect x="147.541" y="148.079" width="2.45902" height="2.46798" fill="#404852"/>
<rect y="164.532" width="2.45902" height="2.46798" fill="#404852"/>
<rect x="16.3936" y="164.532" width="2.45902" height="2.46798" fill="#404852"/>
<rect x="32.7866" y="164.532" width="2.45902" height="2.46798" fill="#404852"/>
<rect x="49.1802" y="164.532" width="2.45902" height="2.46798" fill="#404852"/>
<rect x="65.5737" y="164.532" width="2.45902" height="2.46798" fill="#404852"/>
<rect x="81.9673" y="164.532" width="2.45902" height="2.46798" fill="#404852"/>
<rect x="98.3604" y="164.532" width="2.45902" height="2.46798" fill="#404852"/>
<rect x="114.754" y="164.532" width="2.45902" height="2.46798" fill="#404852"/>
<rect x="131.147" y="164.532" width="2.45902" height="2.46798" fill="#404852"/>
<rect x="147.541" y="164.532" width="2.45902" height="2.46798" fill="#404852"/>
</g>
</svg>
