<svg width="194" height="215" viewBox="0 0 194 215" fill="none" xmlns="http://www.w3.org/2000/svg">
<g opacity="0.5">
<rect width="3.1658" height="3.17735" fill="#404852"/>
<rect x="21.1055" width="3.1658" height="3.17735" fill="#404852"/>
<rect x="42.2104" width="3.1658" height="3.17735" fill="#404852"/>
<rect x="63.3159" width="3.1658" height="3.17735" fill="#404852"/>
<rect x="84.4214" width="3.1658" height="3.17735" fill="#404852"/>
<rect x="105.527" width="3.1658" height="3.17735" fill="#404852"/>
<rect x="126.632" width="3.1658" height="3.17735" fill="#404852"/>
<rect x="147.737" width="3.1658" height="3.17735" fill="#404852"/>
<rect x="168.843" width="3.1658" height="3.17735" fill="#404852"/>
<rect x="189.948" width="3.1658" height="3.17735" fill="#404852"/>
<rect y="21.1816" width="3.1658" height="3.17735" fill="#404852"/>
<rect x="21.1055" y="21.1816" width="3.1658" height="3.17735" fill="#404852"/>
<rect x="42.2104" y="21.1816" width="3.1658" height="3.17735" fill="#404852"/>
<rect x="63.3159" y="21.1816" width="3.1658" height="3.17735" fill="#404852"/>
<rect x="84.4214" y="21.1816" width="3.1658" height="3.17735" fill="#404852"/>
<rect x="105.527" y="21.1816" width="3.1658" height="3.17735" fill="#404852"/>
<rect x="126.632" y="21.1816" width="3.1658" height="3.17735" fill="#404852"/>
<rect x="147.737" y="21.1816" width="3.1658" height="3.17735" fill="#404852"/>
<rect x="168.843" y="21.1816" width="3.1658" height="3.17735" fill="#404852"/>
<rect x="189.948" y="21.1816" width="3.1658" height="3.17735" fill="#404852"/>
<rect y="42.3643" width="3.1658" height="3.17735" fill="#404852"/>
<rect x="21.1055" y="42.3643" width="3.1658" height="3.17735" fill="#404852"/>
<rect x="42.2104" y="42.3643" width="3.1658" height="3.17735" fill="#404852"/>
<rect x="63.3159" y="42.3643" width="3.1658" height="3.17735" fill="#404852"/>
<rect x="84.4214" y="42.3643" width="3.1658" height="3.17735" fill="#404852"/>
<rect x="105.527" y="42.3643" width="3.1658" height="3.17735" fill="#404852"/>
<rect x="126.632" y="42.3643" width="3.1658" height="3.17735" fill="#404852"/>
<rect x="147.737" y="42.3643" width="3.1658" height="3.17735" fill="#404852"/>
<rect x="168.843" y="42.3643" width="3.1658" height="3.17735" fill="#404852"/>
<rect x="189.948" y="42.3643" width="3.1658" height="3.17735" fill="#404852"/>
<rect y="63.5469" width="3.1658" height="3.17735" fill="#404852"/>
<rect x="21.1055" y="63.5469" width="3.1658" height="3.17735" fill="#404852"/>
<rect x="42.2104" y="63.5469" width="3.1658" height="3.17735" fill="#404852"/>
<rect x="63.3159" y="63.5469" width="3.1658" height="3.17735" fill="#404852"/>
<rect x="84.4214" y="63.5469" width="3.1658" height="3.17735" fill="#404852"/>
<rect x="105.527" y="63.5469" width="3.1658" height="3.17735" fill="#404852"/>
<rect x="126.632" y="63.5469" width="3.1658" height="3.17735" fill="#404852"/>
<rect x="147.737" y="63.5469" width="3.1658" height="3.17735" fill="#404852"/>
<rect x="168.843" y="63.5469" width="3.1658" height="3.17735" fill="#404852"/>
<rect x="189.948" y="63.5469" width="3.1658" height="3.17735" fill="#404852"/>
<rect y="84.7285" width="3.1658" height="3.17735" fill="#404852"/>
<rect x="21.1055" y="84.7285" width="3.1658" height="3.17735" fill="#404852"/>
<rect x="42.2104" y="84.7285" width="3.1658" height="3.17735" fill="#404852"/>
<rect x="63.3159" y="84.7285" width="3.1658" height="3.17735" fill="#404852"/>
<rect x="84.4214" y="84.7285" width="3.1658" height="3.17735" fill="#404852"/>
<rect x="105.527" y="84.7285" width="3.1658" height="3.17735" fill="#404852"/>
<rect x="126.632" y="84.7285" width="3.1658" height="3.17735" fill="#404852"/>
<rect x="147.737" y="84.7285" width="3.1658" height="3.17735" fill="#404852"/>
<rect x="168.843" y="84.7285" width="3.1658" height="3.17735" fill="#404852"/>
<rect x="189.948" y="84.7285" width="3.1658" height="3.17735" fill="#404852"/>
<rect y="105.911" width="3.1658" height="3.17735" fill="#404852"/>
<rect x="21.1055" y="105.911" width="3.1658" height="3.17735" fill="#404852"/>
<rect x="42.2104" y="105.911" width="3.1658" height="3.17735" fill="#404852"/>
<rect x="63.3159" y="105.911" width="3.1658" height="3.17735" fill="#404852"/>
<rect x="84.4214" y="105.911" width="3.1658" height="3.17735" fill="#404852"/>
<rect x="105.527" y="105.911" width="3.1658" height="3.17735" fill="#404852"/>
<rect x="126.632" y="105.911" width="3.1658" height="3.17735" fill="#404852"/>
<rect x="147.737" y="105.911" width="3.1658" height="3.17735" fill="#404852"/>
<rect x="168.843" y="105.911" width="3.1658" height="3.17735" fill="#404852"/>
<rect x="189.948" y="105.911" width="3.1658" height="3.17735" fill="#404852"/>
<rect y="127.094" width="3.1658" height="3.17735" fill="#404852"/>
<rect x="21.1055" y="127.094" width="3.1658" height="3.17735" fill="#404852"/>
<rect x="42.2104" y="127.094" width="3.1658" height="3.17735" fill="#404852"/>
<rect x="63.3159" y="127.094" width="3.1658" height="3.17735" fill="#404852"/>
<rect x="84.4214" y="127.094" width="3.1658" height="3.17735" fill="#404852"/>
<rect x="105.527" y="127.094" width="3.1658" height="3.17735" fill="#404852"/>
<rect x="126.632" y="127.094" width="3.1658" height="3.17735" fill="#404852"/>
<rect x="147.737" y="127.094" width="3.1658" height="3.17735" fill="#404852"/>
<rect x="168.843" y="127.094" width="3.1658" height="3.17735" fill="#404852"/>
<rect x="189.948" y="127.094" width="3.1658" height="3.17735" fill="#404852"/>
<rect y="148.275" width="3.1658" height="3.17735" fill="#404852"/>
<rect x="21.1055" y="148.275" width="3.1658" height="3.17735" fill="#404852"/>
<rect x="42.2104" y="148.275" width="3.1658" height="3.17735" fill="#404852"/>
<rect x="63.3159" y="148.275" width="3.1658" height="3.17735" fill="#404852"/>
<rect x="84.4214" y="148.275" width="3.1658" height="3.17735" fill="#404852"/>
<rect x="105.527" y="148.275" width="3.1658" height="3.17735" fill="#404852"/>
<rect x="126.632" y="148.275" width="3.1658" height="3.17735" fill="#404852"/>
<rect x="147.737" y="148.275" width="3.1658" height="3.17735" fill="#404852"/>
<rect x="168.843" y="148.275" width="3.1658" height="3.17735" fill="#404852"/>
<rect x="189.948" y="148.275" width="3.1658" height="3.17735" fill="#404852"/>
<rect y="169.459" width="3.1658" height="3.17735" fill="#404852"/>
<rect x="21.1055" y="169.459" width="3.1658" height="3.17735" fill="#404852"/>
<rect x="42.2104" y="169.459" width="3.1658" height="3.17735" fill="#404852"/>
<rect x="63.3159" y="169.459" width="3.1658" height="3.17735" fill="#404852"/>
<rect x="84.4214" y="169.459" width="3.1658" height="3.17735" fill="#404852"/>
<rect x="105.527" y="169.459" width="3.1658" height="3.17735" fill="#404852"/>
<rect x="126.632" y="169.459" width="3.1658" height="3.17735" fill="#404852"/>
<rect x="147.737" y="169.459" width="3.1658" height="3.17735" fill="#404852"/>
<rect x="168.843" y="169.459" width="3.1658" height="3.17735" fill="#404852"/>
<rect x="189.948" y="169.459" width="3.1658" height="3.17735" fill="#404852"/>
<rect y="190.641" width="3.1658" height="3.17735" fill="#404852"/>
<rect x="21.1055" y="190.641" width="3.1658" height="3.17735" fill="#404852"/>
<rect x="42.2104" y="190.641" width="3.1658" height="3.17735" fill="#404852"/>
<rect x="63.3159" y="190.641" width="3.1658" height="3.17735" fill="#404852"/>
<rect x="84.4214" y="190.641" width="3.1658" height="3.17735" fill="#404852"/>
<rect x="105.527" y="190.641" width="3.1658" height="3.17735" fill="#404852"/>
<rect x="126.632" y="190.641" width="3.1658" height="3.17735" fill="#404852"/>
<rect x="147.737" y="190.641" width="3.1658" height="3.17735" fill="#404852"/>
<rect x="168.843" y="190.641" width="3.1658" height="3.17735" fill="#404852"/>
<rect x="189.948" y="190.641" width="3.1658" height="3.17735" fill="#404852"/>
<rect y="211.823" width="3.1658" height="3.17735" fill="#404852"/>
<rect x="21.1055" y="211.823" width="3.1658" height="3.17735" fill="#404852"/>
<rect x="42.2104" y="211.823" width="3.1658" height="3.17735" fill="#404852"/>
<rect x="63.3159" y="211.823" width="3.1658" height="3.17735" fill="#404852"/>
<rect x="84.4214" y="211.823" width="3.1658" height="3.17735" fill="#404852"/>
<rect x="105.527" y="211.823" width="3.1658" height="3.17735" fill="#404852"/>
<rect x="126.632" y="211.823" width="3.1658" height="3.17735" fill="#404852"/>
<rect x="147.737" y="211.823" width="3.1658" height="3.17735" fill="#404852"/>
<rect x="168.843" y="211.823" width="3.1658" height="3.17735" fill="#404852"/>
<rect x="189.948" y="211.823" width="3.1658" height="3.17735" fill="#404852"/>
</g>
</svg>
